<?xml version="1.0" encoding="iso-8859-1"?>
<!-- Generator: Adobe Illustrator 19.0.0, SVG Export Plug-In . SVG Version: 6.00 Build 0)  -->
<svg version="1.1" id="Layer_1" xmlns="http://www.w3.org/2000/svg" xmlns:xlink="http://www.w3.org/1999/xlink" x="0px" y="0px"
	 viewBox="0 0 512.001 512.001" style="enable-background:new 0 0 512.001 512.001;" xml:space="preserve">
<g>
	<g>
		<path d="M500.033,264.883c-3.503-7.098-78.448-130.636-80.347-133.721c-13.99-22.704-38.24-36.258-64.869-36.258
			c-3.799,0-7.53,0.288-11.182,0.828c-0.003-0.007-0.013-0.022-0.016-0.026c-6.453-10.457-17.622-16.701-29.876-16.701
			c-19.348,0-35.09,15.741-35.09,35.09v61.312h-45.306v-61.312c0-19.348-15.741-35.09-35.09-35.09
			c-12.232,0-23.38,6.221-29.89,16.727c-3.651-0.54-7.384-0.828-11.184-0.828c-26.629,0-50.879,13.555-64.87,36.26
			c-0.193,0.313-0.78,1.267-14.882,24.908c-2.424,4.064-1.094,9.324,2.969,11.748c4.064,2.423,9.324,1.096,11.748-2.969
			c11.604-19.452,14.43-24.168,14.757-24.699c10.846-17.602,29.642-28.111,50.279-28.111c32.548,0,59.026,26.479,59.026,59.026
			v0.005v84.439c-20.53-33.481-57.467-55.864-99.536-55.864c-18.999,0-36.95,4.568-52.817,12.657
			c4.075-6.837,8.38-14.06,12.7-21.304c2.423-4.065,1.093-9.325-2.972-11.748c-4.065-2.423-9.324-1.093-11.748,2.972
			c-18.206,30.534-46.861,76.35-50.481,83.914C4.08,281.345,0,298.365,0,316.322c0,64.334,52.34,116.674,116.674,116.674
			s116.673-52.34,116.673-116.674v-22.767h45.306v22.767c0,64.334,52.34,116.674,116.673,116.674
			c64.334,0,116.674-52.34,116.674-116.674C512.001,297.87,507.694,280.408,500.033,264.883z M216.21,123
			c-7.916-9.703-18.17-17.421-29.897-22.294c3.244-2.91,7.45-4.564,11.945-4.564c9.899,0,17.952,8.053,17.952,17.952V123z
			 M116.674,415.857c-54.885,0-99.537-44.651-99.537-99.536s44.652-99.537,99.537-99.537c54.885,0,99.536,44.652,99.536,99.537
			S171.558,415.857,116.674,415.857z M233.346,243.516v-50.973h45.306v50.973H233.346z M278.653,276.418h-45.306v-15.764h45.306
			V276.418z M295.79,114.095c0-9.899,8.053-17.952,17.952-17.952c4.509,0,8.729,1.665,11.956,4.56
			c-11.731,4.873-21.99,12.593-29.908,22.298V114.095z M295.79,171.072v-0.005c0-32.548,26.479-59.026,59.026-59.026
			c20.638,0,39.433,10.51,50.279,28.111c1.028,1.669,22.444,37.584,43.048,72.152c-15.868-8.09-33.819-12.658-52.818-12.658
			c-42.069,0-79.006,22.384-99.536,55.864V171.072z M395.327,415.857c-54.885,0-99.536-44.652-99.536-99.537
			s44.652-99.537,99.536-99.537c54.885,0,99.537,44.652,99.537,99.537S450.211,415.857,395.327,415.857z"/>
	</g>
</g>
<g>
	<g>
		<path d="M470.448,289.32c-1.602-4.452-6.508-6.765-10.962-5.164c-4.452,1.601-6.765,6.509-5.164,10.962
			c2.438,6.783,3.675,13.917,3.675,21.203c0,34.557-28.113,62.671-62.671,62.671c-34.557,0-62.671-28.114-62.671-62.671
			s28.114-62.671,62.671-62.671c17.343,0,34.069,7.286,45.891,19.989c3.224,3.464,8.645,3.659,12.111,0.435
			c3.464-3.224,3.659-8.645,0.435-12.111c-15.051-16.174-36.351-25.451-58.437-25.451c-44.007,0-79.808,35.801-79.808,79.808
			s35.801,79.808,79.808,79.808s79.808-35.801,79.808-79.808C475.135,307.054,473.558,297.969,470.448,289.32z"/>
	</g>
</g>
<g>
	<g>
		<path d="M116.674,236.514c-44.007,0-79.808,35.801-79.808,79.808s35.801,79.808,79.808,79.808
			c44.007,0,79.808-35.801,79.808-79.808S160.68,236.514,116.674,236.514z M116.674,378.992c-34.557,0-62.671-28.113-62.671-62.671
			c0-34.557,28.113-62.671,62.671-62.671s62.671,28.113,62.671,62.671C179.345,350.879,151.23,378.992,116.674,378.992z"/>
	</g>
</g>
<g>
</g>
<g>
</g>
<g>
</g>
<g>
</g>
<g>
</g>
<g>
</g>
<g>
</g>
<g>
</g>
<g>
</g>
<g>
</g>
<g>
</g>
<g>
</g>
<g>
</g>
<g>
</g>
<g>
</g>
</svg>
