<svg id="Capa_1" enable-background="new 0 0 512 512" height="512" viewBox="0 0 512 512" width="512" xmlns="http://www.w3.org/2000/svg"><g><path d="m509.92 189.431.007-.003-.09-.226c-.008-.019-.015-.039-.023-.058l-39.886-99.716c-2.279-5.694-7.794-9.428-13.928-9.428h-40v-65c0-8.284-6.716-15-15-15h-290c-8.284 0-15 6.716-15 15v65h-40c-6.134 0-11.649 3.734-13.927 9.429l-39.886 99.715c-.008.019-.015.039-.023.058l-.09.226.007.003c-.691 1.724-1.081 3.599-1.081 5.569v22c0 22.646 12.015 42.531 30 53.637v226.363c0 8.284 6.716 15 15 15h420c8.284 0 15-6.716 15-15v-226.363c17.985-11.106 30-30.992 30-53.637v-22c0-1.97-.39-3.845-1.08-5.569zm-383.92-159.431h260v90h-260zm-59.845 80h29.845v25c0 8.284 6.716 15 15 15h290c8.284 0 15-6.716 15-15v-25h29.845l28 70h-435.69zm252.845 100h66v7c0 18.196-14.804 33-33 33s-33-14.804-33-33zm-96 0h66v7c0 18.196-14.804 33-33 33s-33-14.804-33-33zm-96 0h66v7c0 18.196-14.804 33-33 33s-33-14.804-33-33zm-96 7v-7h66v7c0 18.196-14.804 33-33 33s-33-14.804-33-33zm90 265v-140h90v140zm330 0h-210v-155c0-8.284-6.716-15-15-15h-120c-8.284 0-15 6.716-15 15v155h-30v-202.076c.995.047 1.994.076 3 .076 19.214 0 36.435-8.656 48-22.262 11.565 13.606 28.786 22.262 48 22.262s36.435-8.656 48-22.262c11.565 13.606 28.786 22.262 48 22.262s36.435-8.656 48-22.262c11.565 13.606 28.786 22.262 48 22.262s36.435-8.656 48-22.262c11.565 13.606 28.786 22.262 48 22.262 1.006 0 2.005-.029 3-.076zm30-265c0 18.196-14.804 33-33 33s-33-14.804-33-33v-7h66z"/><path d="m171 90h170c8.284 0 15-6.716 15-15s-6.716-15-15-15h-170c-8.284 0-15 6.716-15 15s6.716 15 15 15z"/><path d="m406 312h-120c-8.284 0-15 6.716-15 15v90c0 8.284 6.716 15 15 15h120c8.284 0 15-6.716 15-15v-90c0-8.284-6.716-15-15-15zm-15 90h-90v-60h90z"/><path d="m176 382c-8.284 0-15 6.716-15 15v20c0 8.284 6.716 15 15 15s15-6.716 15-15v-20c0-8.284-6.716-15-15-15z"/></g></svg>