<?xml version="1.0"?>
<svg xmlns="http://www.w3.org/2000/svg" xmlns:xlink="http://www.w3.org/1999/xlink" xmlns:svgjs="http://svgjs.com/svgjs" version="1.1" width="512" height="512" x="0" y="0" viewBox="0 0 512.00014 512" style="enable-background:new 0 0 512 512" xml:space="preserve" class=""><g><path xmlns="http://www.w3.org/2000/svg" d="m511.074219 401.507812c-2.402344-11.5625-9.199219-21.441406-19.140625-27.820312-9.941406-6.375-21.75-8.433594-33.265625-5.800781l-53.367188 12.21875v-21.816407c10.703125-10.082031 21.847657-23.246093 29.773438-35.277343 13.898437-21.097657 23.734375-44.265625 29.234375-68.847657 6.539062-29.246093 6.679687-60.207031.402344-89.546874-1.15625-5.398438-6.472657-8.84375-11.871094-7.683594-5.402344 1.152344-8.839844 6.46875-7.6875 11.871094 5.679687 26.535156 5.554687 54.542968-.363282 80.992187-4.96875 22.210937-13.859374 43.144531-26.417968 62.210937-3.722656 5.652344-8.238282 11.582032-13.070313 17.246094v-110.84375c0-5.523437-4.476562-10-10-10h-79.105469v-106.789062c0-5.507813-4.457031-9.980469-9.964843-10l-89.105469-.300782c-.011719 0-.019531 0-.03125 0-2.648438 0-5.1875 1.046876-7.058594 2.917969-1.882812 1.875-2.941406 4.421875-2.941406 7.082031v55.550782h-79.117188c-5.519531 0-10 4.476562-10 10v99.027344h-22.28125v-13.582032c0-5.519531-4.476562-9.996094-10-9.996094h-10.257812c-1.746094-9.613281-2.757812-19.378906-2.996094-29.128906-.585937-23.707031 3.171875-46.902344 11.164063-68.949218 1.863281-5.140626 3.980469-10.265626 6.289062-15.226563 2.332031-5.007813.160157-10.957031-4.84375-13.289063-5.007812-2.324218-10.957031-.160156-13.285156 4.847657-2.558594 5.492187-4.902344 11.164062-6.960937 16.851562-8.84375 24.394531-13 50.054688-12.359376 76.257813.238282 9.578125 1.152344 19.164062 2.703126 28.636718h-45.148438c-5.523438 0-10 4.476563-10 10v175.773438c0 5.523438 4.476562 10 10 10h75.695312c5.523438 0 10-4.476562 10-10v-9.507812h37.617188l152.378906 59.765624c14.226563 5.582032 29.128906 8.390626 44.109375 8.390626 9.988281 0 20.019531-1.25 29.898438-3.761719l119.433593-30.355469c22.671876-5.761719 36.699219-28.214844 31.941407-51.117188zm-125.769531-173.097656v156.273438l-26.734376 6.121094c-2.875.65625-5.78125 1.175781-8.703124 1.582031-11.140626 1.535156-22.507813 1.210937-33.53125-.972657-.046876-.011718-.09375-.019531-.140626-.03125v-15.164062c7.625-11.375 10.152344-25.796875 6.15625-38.960938-1.113281-3.671874-2.695312-7.214843-4.707031-10.484374-.457031-.742188-.933593-1.46875-1.429687-2.179688-.003906-.011719-.011719-.019531-.019532-.03125v-96.15625h69.109376zm-158.210938-117.054687 69.105469.230469v197.09375l-38.621094-15.984376-30.484375-12.621093zm-89.117188 65.515625h69.105469v94.917968l-12.402343-5.132812c-1.214844-.503906-2.515626-.761719-3.824219-.761719h-52.878907zm-62.28125 241.222656h-55.695312v-155.777344h47.179688c.019531 0 .042968.003906.066406.003906.019531 0 .035156-.003906.054687-.003906h8.394531zm398.511719 15.148438-119.433593 30.355468c-20.617188 5.238282-41.980469 3.898438-61.78125-3.863281l-154.136719-60.457031c-1.164063-.457032-2.402344-.6875-3.652344-.6875h-39.507813v-112.691406h93.167969l64.703125 26.78125 35.40625 14.65625c12.527344 5.195312 18.523438 19.890624 13.386719 32.402343-1.03125 2.511719-2.308594 4.898438-4.003906 7.027344-6.261719 7.902344-16.570313 11.386719-26.210938 9.042969-.078125-.019532-.15625-.039063-.234375-.058594-.578125-.144531-1.152344-.3125-1.722656-.5l-67.285156-25.867188c-.546875-.210937-.835938-.320312-.835938-.320312-5.152344-1.984375-10.9375.589844-12.921875 5.746094-1.980469 5.152344.589844 10.941406 5.746094 12.921875 0 0 37.9375 14.585937 66.867187 25.742187.582032.226563 1.160157.4375 1.742188.632813l22.214844 8.542969c6.714844 2.582031 13.398437 5.152343 20.386718 6.9375 11.867188 3.03125 24.183594 4.25 36.417969 3.582031 6.898438-.375 13.785157-1.328125 20.519531-2.867188l34.496094-7.894531c.035156-.007812.070313-.023438.105469-.03125l65.492187-14.992188c6.230469-1.425781 12.625-.3125 18 3.136719 5.382813 3.453125 9.058594 8.800781 10.359376 15.058594 2.578124 12.394531-5.015626 24.546875-17.285157 27.664063zm0 0" fill="#767676" data-original="#000000" style="" class=""/><path xmlns="http://www.w3.org/2000/svg" d="m127.878906 71.125c2.390625 0 4.789063-.851562 6.699219-2.578125 17.84375-16.117187 39.152344-28.972656 61.632813-37.179687 24.355468-8.890626 51.054687-12.683594 77.214843-10.964844 18.722657 1.230468 37.066407 5.226562 54.519531 11.875 5.15625 1.964844 10.9375-.621094 12.902344-5.785156 1.96875-5.160157-.621094-10.9375-5.785156-12.902344-19.3125-7.359375-39.609375-11.78125-60.324219-13.144532-28.914062-1.898437-58.441406 2.296876-85.386719 12.136719-24.871093 9.078125-48.445312 23.300781-68.175781 41.121094-4.101562 3.703125-4.421875 10.027344-.71875 14.125 1.972657 2.1875 4.691407 3.296875 7.421875 3.296875zm0 0" fill="#767676" data-original="#000000" style="" class=""/><path xmlns="http://www.w3.org/2000/svg" d="m354.886719 142.492188c1.894531 1.644531 4.230469 2.449218 6.554687 2.449218 2.792969 0 5.574219-1.164062 7.554688-3.4375l82.273437-94.707031c3.625-4.167969 3.179688-10.484375-.988281-14.105469-4.171875-3.621094-10.484375-3.179687-14.105469.988282l-82.277343 94.707031c-3.625 4.167969-3.179688 10.484375.988281 14.105469zm0 0" fill="#767676" data-original="#000000" style="" class=""/><path xmlns="http://www.w3.org/2000/svg" d="m428.617188 99.738281c-13.84375 0-25.105469 11.261719-25.105469 25.105469s11.261719 25.105469 25.105469 25.105469 25.105468-11.265625 25.105468-25.105469c0-13.84375-11.261718-25.105469-25.105468-25.105469zm0 30.210938c-2.816407 0-5.105469-2.289063-5.105469-5.105469 0-2.8125 2.289062-5.105469 5.105469-5.105469 2.8125 0 5.105468 2.292969 5.105468 5.105469 0 2.816406-2.292968 5.105469-5.105468 5.105469zm0 0" fill="#767676" data-original="#000000" style="" class=""/><path xmlns="http://www.w3.org/2000/svg" d="m373.085938 77.476562c13.84375 0 25.105468-11.261718 25.105468-25.105468s-11.261718-25.105469-25.105468-25.105469-25.105469 11.261719-25.105469 25.105469 11.261719 25.105468 25.105469 25.105468zm0-30.214843c2.816406 0 5.105468 2.292969 5.105468 5.109375 0 2.8125-2.289062 5.105468-5.105468 5.105468-2.816407 0-5.105469-2.292968-5.105469-5.105468 0-2.816406 2.289062-5.109375 5.105469-5.109375zm0 0" fill="#767676" data-original="#000000" style="" class=""/><path xmlns="http://www.w3.org/2000/svg" d="m92.328125 94.625c1.601563 3.84375 5.542969 6.382812 9.71875 6.164062 4.128906-.214843 7.746094-3.007812 9.023437-6.929687 1.289063-3.957031-.117187-8.464844-3.425781-10.992187-3.371093-2.570313-8.105469-2.730469-11.636719-.382813-3.917968 2.605469-5.488281 7.800781-3.679687 12.140625zm0 0" fill="#767676" data-original="#000000" style="" class=""/></g></svg>
