<svg id="Capa_1" enable-background="new 0 0 512 512" height="512" viewBox="0 0 512 512" width="512" xmlns="http://www.w3.org/2000/svg"><g><path d="m421.375 165.625c0-91.188-74.187-165.375-165.375-165.375s-165.375 74.187-165.375 165.375v201.73h15 300.75 15z" fill="#454a53"/><path d="m256 .25v367.105h150.375 15v-201.73c0-91.188-74.187-165.375-165.375-165.375z" fill="#292b2f"/><g><path d="m255.34 512c-112.84 0-112.84-75.25-112.84-75.25l8.37-103.97c6.2-.92 12.56-1.4 19.02-1.4h172.22c6.46 0 12.82.48 19.03 1.4l7.61 97.72s-.57 81.5-113.41 81.5z" fill="#f5f9fb"/></g><path d="m342.11 331.38h-86.11v180.612c112.174-.321 112.75-81.492 112.75-81.492l-7.61-97.72c-6.21-.92-12.57-1.4-19.03-1.4z" fill="#dfecfd"/><path d="m286.125 241h-60.25c-8.284 0-15 6.716-15 15v108.022c0 31.479 12.259 61.075 34.519 83.334 2.929 2.929 6.767 4.394 10.606 4.394 3.838 0 7.678-1.465 10.606-4.393 22.26-22.259 34.519-51.855 34.519-83.335v-108.022c0-8.284-6.716-15-15-15z" fill="#ffdbd6"/><path d="m286.125 241h-30.125v210.75c3.838 0 7.678-1.465 10.606-4.393 22.26-22.259 34.519-51.855 34.519-83.335v-108.022c0-8.284-6.716-15-15-15z" fill="#ffcdbe"/><g><path d="m165.625 255.938h-30.125c-24.882 0-45.125-20.243-45.125-45.125s20.243-45.125 45.125-45.125h30.125c8.284 0 15 6.716 15 15v60.25c0 8.284-6.716 15-15 15z" fill="#ffdbd6"/></g><g><path d="m376.5 255.938h-30.125c-8.284 0-15-6.716-15-15v-60.25c0-8.284 6.716-15 15-15h30.125c24.882 0 45.125 20.243 45.125 45.125 0 24.881-20.243 45.125-45.125 45.125z" fill="#ffcdbe"/></g><g><path d="m256 60.264c0 66.91-100.366 66.91-100.366 66.91v133.821c0 55.43 44.935 100.365 100.365 100.365 55.43 0 100.366-44.935 100.366-100.365v-133.82c-.002-.001-100.365-.001-100.365-66.911z" fill="#ffeee5"/></g><path d="m256 60.264v.016 301.081c55.43 0 100.365-44.935 100.365-100.365v-133.821c-.002-.001-100.365-.001-100.365-66.911z" fill="#ffdbd6"/><g><path d="m256 300.49c-13.079 0-25.374-5.093-34.622-14.341-5.857-5.858-5.857-15.355 0-21.213 5.858-5.857 15.355-5.857 21.213 0 3.581 3.582 8.343 5.554 13.408 5.554 5.064 0 9.826-1.972 13.408-5.554 5.857-5.857 15.355-5.858 21.213 0s5.858 15.355 0 21.213c-9.246 9.248-21.542 14.341-34.62 14.341z" fill="#ffdbd6"/></g><g><path d="m15 90.25c-8.284 0-15-6.716-15-15v-60.25c0-8.284 6.716-15 15-15h60.25c8.284 0 15 6.716 15 15s-6.716 15-15 15h-45.25v45.25c0 8.284-6.716 15-15 15z" fill="#a7e340"/></g><g><path d="m497 90.25c-8.284 0-15-6.716-15-15v-45.25h-45.25c-8.284 0-15-6.716-15-15s6.716-15 15-15h60.25c8.284 0 15 6.716 15 15v60.25c0 8.284-6.716 15-15 15z" fill="#86c983"/></g><path d="m269.408 264.937c-3.582 3.582-8.344 5.554-13.408 5.554v30c13.078 0 25.374-5.093 34.621-14.341 5.858-5.858 5.858-15.355 0-21.213-5.857-5.858-15.355-5.858-21.213 0z" fill="#ffcdbe"/><g><path d="m439.62 382.25c-15.89-26.47-44.96-44.49-78.48-49.47 1.44 41.94-3.67 77.66-15.1 105.94-8.51 21.03-20.5 38.08-35.67 50.67-26.59 22.1-53.88 22.6-55.03 22.61h181.41c8.28 0 15-6.72 15-15v-71.76c0-14.89-4.19-29.76-12.13-42.99zm-273.94 56.38c-11.22-28.25-16.23-63.94-14.81-105.85-33.52 4.98-62.6 22.99-78.49 49.47-7.94 13.23-12.13 28.09-12.13 42.99v71.76c0 8.28 6.72 15 15 15h179.81c-2.84-.03-28.55-.89-54.33-22.69-14.91-12.6-26.7-29.65-35.05-50.68z" fill="#dc495a"/></g><path d="m361.14 332.78c1.44 41.94-3.67 77.66-15.1 105.94-8.51 21.03-20.5 38.08-35.67 50.67-24.676 20.509-49.94 22.415-54.37 22.591v.019h180.75c8.28 0 15-6.72 15-15v-71.76c0-14.89-4.19-29.76-12.13-42.99-15.89-26.47-44.96-44.49-78.48-49.47z" fill="#be1964"/><g><path d="m497 512h-60.25c-8.284 0-15-6.716-15-15s6.716-15 15-15h45.25v-45.25c0-8.284 6.716-15 15-15s15 6.716 15 15v60.25c0 8.284-6.716 15-15 15z" fill="#86c983"/></g><g><path d="m75.25 512h-60.25c-8.284 0-15-6.716-15-15v-60.25c0-8.284 6.716-15 15-15s15 6.716 15 15v45.25h45.25c8.284 0 15 6.716 15 15s-6.716 15-15 15z" fill="#a7e340"/></g></g></svg>