<svg height="512pt" viewBox="0 -56 512.001 512" width="512pt" xmlns="http://www.w3.org/2000/svg"><path d="m320.128906 127.226562c4.140625 0 7.5-3.359374 7.5-7.5v-8.015624c0-4.140626-3.359375-7.5-7.5-7.5s-7.5 3.359374-7.5 7.5v8.015624c0 4.140626 3.359375 7.5 7.5 7.5zm0 0"/><path d="m400.289062 127.226562c4.144532 0 7.5-3.359374 7.5-7.5v-8.015624c0-4.140626-3.355468-7.5-7.5-7.5-4.140624 0-7.5 3.359374-7.5 7.5v8.015624c0 4.140626 3.359376 7.5 7.5 7.5zm0 0"/><path d="m331.902344 165.824219c8.347656 6.214843 18.136718 9.5 28.308594 9.5 10.171874 0 19.960937-3.285157 28.308593-9.5 3.320313-2.476563 4.007813-7.171875 1.535157-10.496094-2.476563-3.324219-7.171876-4.011719-10.496094-1.535156-5.738282 4.273437-12.429688 6.53125-19.347656 6.53125-6.921876 0-13.609376-2.261719-19.351563-6.53125-3.320313-2.476563-8.019531-1.789063-10.492187 1.535156-2.476563 3.320313-1.789063 8.019531 1.535156 10.496094zm0 0"/><path d="m490.429688 267.453125-53.261719-17.753906-10.011719-15.019531c-2.351562-3.527344-5.945312-5.890626-10.117188-6.65625-.410156-.074219-.820312-.121094-1.234374-.160157v-24.238281c1.59375-1.300781 3.160156-2.640625 4.671874-4.058594 17.410157-16.324218 27.394532-39.09375 27.394532-62.472656v-5.429688c0-2.898437-.265625-5.746093-.765625-8.519531l11.496093-17.246093c3.46875-5.199219 5.300782-11.253907 5.300782-17.5v-8.753907c0-43.917969-35.730469-79.644531-79.644532-79.644531h-56.113281c-11.816406 0-22.128906 6.535156-27.535156 16.175781-24.613281 1.792969-44.09375 22.375-44.09375 47.4375v24.785157c0 4.265624.875 8.4375 2.519531 12.3125-16.582031-13.03125-37.335937-20.550782-59.148437-20.550782-52.757813 0-95.679688 42.921875-95.679688 95.679688v40.59375h-48.609375c-17.398437 0-31.546875 14.152344-31.546875 31.550781v24.046875c0 14.140625 6.207031 26.851562 16.03125 35.574219v10.429687c0 3.539063-2.226562 6.746094-5.535156 7.988282l-19.277344 7.230468c-9.132812 3.425782-15.269531 12.28125-15.269531 22.035156v36.984376c0 4.144531 3.359375 7.5 7.5 7.5s7.5-3.355469 7.5-7.5v-36.984376c0-3.539062 2.226562-6.75 5.535156-7.992187l16.433594-6.160156 23.746094 23.5c3.011718 2.980469 6.960937 4.464843 10.914062 4.464843s7.90625-1.488281 10.914063-4.464843l5.636719-5.574219v33.214844c0 4.140625 3.355468 7.5 7.5 7.5 4.140624 0 7.5-3.359375 7.5-7.5v-48.742188c0-6.433594 3.769531-12.332031 9.613281-15.027344l39.710937-18.328124 31.320313 29.257812c4.503906 4.207031 10.285156 6.308594 16.0625 6.308594 2.898437 0 5.796875-.527344 8.535156-1.585938v48.117188c0 4.140625 3.355469 7.5 7.5 7.5 4.140625 0 7.5-3.359375 7.5-7.5v-94.894532c0-7.132812 4.546875-13.441406 11.3125-15.699218l50.84375-16.949219 31.1875 37.421875c2.78125 3.339844 6.871094 5.371094 11.214844 5.566406.234375.011719.464843.015625.699219.015625 4.097656 0 8.066406-1.636719 10.976562-4.542969l13.054688-13.054687v102.132813c0 4.144531 3.355468 7.5 7.5 7.5 4.140624 0 7.5-3.355469 7.5-7.5v-102.132813l13.050781 13.054687c3.078125 3.074219 7.324219 4.722657 11.675781 4.527344 4.34375-.195312 8.433594-2.226562 11.21875-5.566406l14.417969-17.304688c2.652343-3.183593 2.222656-7.910156-.957031-10.5625-3.183594-2.652343-7.914063-2.222656-10.5625.957032l-14.421876 17.308594c-.039062.046874-.148437.171874-.375.183593-.226562.011719-.34375-.105469-.386718-.152343l-19.597656-19.59375 42.171874-30.125c.042969-.03125.179688-.125.394532-.085938s.304687.175781.335937.21875l11.144531 16.71875c.882813 1.546875 2.316407 2.78125 4.136719 3.390625l55.730469 18.574219c6.765625 2.257812 11.3125 8.566406 11.3125 15.699218v94.894532c0 4.140625 3.359375 7.5 7.5 7.5 4.144531 0 7.5-3.359375 7.5-7.5v-94.894532c0-13.601562-8.667969-25.628906-21.570312-29.929687zm-218.914063-203.839844c0-15.390625 10.730469-28.3125 25.097656-31.703125.191407 3.972656 3.464844 7.136719 7.484375 7.136719 4.140625 0 7.5-3.355469 7.5-7.5 0-9.125 7.421875-16.546875 16.546875-16.546875h56.113281c35.644532 0 64.644532 29 64.644532 64.644531v8.75c0 3.277344-.960938 6.453125-2.777344 9.179688l-5.675781 8.511719c-6.707031-10.585938-17.472657-18.394532-30.316407-20.953126-45.0625-8.976562-76.875-35.042968-77.191406-35.304687-3.183594-2.644531-7.90625-2.214844-10.558594.964844-2.652343 3.183593-2.222656 7.914062.960938 10.566406 1.402344 1.167969 34.910156 28.734375 83.855469 38.484375 14.875 2.960938 25.671875 16.34375 25.671875 31.820312v5.429688c0 19.25-8.257813 38.03125-22.652344 51.527344-14.917969 13.984375-34.398438 20.957031-54.839844 19.640625-38.035156-2.453125-67.828125-35.523438-67.828125-75.28125v-27.34375c0-4.417969 1.71875-8.574219 4.84375-11.699219l17.007813-17.007812c2.925781-2.925782 2.925781-7.675782 0-10.605469-2.929688-2.925781-7.679688-2.925781-10.605469 0l-17.007813 17.007812c-3.808593 3.804688-6.515624 8.417969-7.980468 13.449219-1.496094-2.539062-2.289063-5.417969-2.289063-8.386719v-24.78125zm33.097656 164.25c-.414062.039063-.824219.085938-1.234375.164063-2.984375.546875-5.664062 1.925781-7.8125 3.949218v-37.921874c2.808594 3.171874 5.828125 6.140624 9.046875 8.871093zm-185.402343-52.023437c0-44.488282 36.191406-80.679688 80.675781-80.679688 31.179687 0 59.804687 18.210938 73.058593 46.421875.933594 10.140625 3.496094 19.816407 7.421876 28.734375.121093 1.832032.195312 3.683594.195312 5.519532v74.757812l-41.113281 13.703125v-4.738281c19.3125-12.847656 32.066406-34.792969 32.066406-59.671875v-10.898438c0-10.988281-7.503906-20.414062-18.25-22.925781-17.796875-4.160156-50.832031-14.316406-72.125-35.609375-2.929687-2.929687-7.675781-2.929687-10.605469 0-2.929687 2.929687-2.929687 7.675781 0 10.605469 23.925782 23.925781 59.964844 35.085937 79.320313 39.609375 3.921875.917969 6.660156 4.335937 6.660156 8.320312v10.898438c0 31.226562-25.40625 56.628906-56.628906 56.628906-31.226563 0-56.628907-25.402344-56.628907-56.628906v-17.40625c0-2.28125.886719-4.421875 2.5-6.035157l11.335938-11.335937c2.929688-2.929687 2.929688-7.675781 0-10.605469-2.929688-2.929687-7.675781-2.929687-10.605469 0l-11.335937 11.335938c-4.445313 4.445312-6.894532 10.355468-6.894532 16.640625v17.40625c0 24.878906 12.757813 46.828125 32.066407 59.671875v13.691406l-41.113281-7.476562zm-63.613282 55.59375h48.613282v9.050781h-63.347657c2.742188-5.363281 8.308594-9.050781 14.734375-9.050781zm-16.550781 24.050781h65.164063v16.546875c0 17.964844-14.617188 32.582031-32.582032 32.582031s-32.582031-14.613281-32.582031-32.582031zm32.945313 98.488281c-.199219.199219-.523438.199219-.726563 0l-21.414063-21.1875c3.300782-4.101562 5.226563-9.285156 5.226563-14.75v-1.394531c5.160156 1.917969 10.734375 2.972656 16.550781 2.972656s11.390625-1.054687 16.546875-2.972656v1.394531c0 4.175782 1.121094 8.21875 3.175781 11.773438-1.152343 2.375-2.011718 4.898437-2.539062 7.519531zm34.511718-39.085937c-1.15625.535156-2.257812 1.148437-3.328125 1.808593v-9.089843c7.726563-6.859375 13.207031-16.1875 15.199219-26.738281l41.0625 7.464843c-.847656 1.730469-2.261719 3.167969-4.070312 4.003907zm101.914063-17.503907v28.5625l-2.707031 2.527344c-3.265626 3.054688-8.382813 3.050782-11.648438 0l-27.445312-25.632812c5.410156-4.410156 8.707031-11.09375 8.707031-18.25v-17.414063c7.664062 2.808594 15.9375 4.339844 24.5625 4.339844s16.898437-1.53125 24.5625-4.339844v2.757813c-9.773438 5.515625-16.03125 15.90625-16.03125 27.449218zm120.628906-4.796874c-.042969.042968-.160156.164062-.386719.152343-.226562-.011719-.332031-.136719-.375-.1875l-30.875-37.050781 8.332032-12.5c.03125-.042969.125-.179688.335937-.21875.21875-.042969.351563.054688.394531.085938l42.171875 30.125zm31.164063-29.769532-40.597657-29v-20.625c10.507813 5.679688 22.277344 9.230469 34.796875 10.039063 1.972656.128906 3.933594.191406 5.890625.191406 14.3125 0 28.101563-3.410156 40.503907-9.882813v20.277344zm0 0"/><path d="m167.824219 199.371094c4.140625 0 7.5-3.359375 7.5-7.5v-8.015625c0-4.140625-3.359375-7.5-7.5-7.5-4.144531 0-7.5 3.359375-7.5 7.5v8.015625c0 4.140625 3.355469 7.5 7.5 7.5zm0 0"/><path d="m231.953125 199.371094c4.140625 0 7.5-3.359375 7.5-7.5v-8.015625c0-4.140625-3.359375-7.5-7.5-7.5-4.144531 0-7.5 3.359375-7.5 7.5v8.015625c0 4.140625 3.355469 7.5 7.5 7.5zm0 0"/><path d="m179.734375 230.203125c5.964844 3.921875 12.933594 5.992187 20.152344 5.992187s14.1875-2.070312 20.152343-5.992187c3.460938-2.273437 4.421876-6.925781 2.148438-10.386719-2.277344-3.460937-6.925781-4.425781-10.386719-2.148437-3.511719 2.308593-7.628906 3.527343-11.914062 3.527343-4.28125 0-8.402344-1.222656-11.914063-3.527343-3.457031-2.277344-8.109375-1.3125-10.386718 2.148437-2.273438 3.460938-1.3125 8.113282 2.148437 10.386719zm0 0"/><path d="m55.597656 279.53125h.078125c4.144531 0 7.460938-3.355469 7.460938-7.5 0-4.140625-3.398438-7.5-7.539063-7.5-4.144531 0-7.5 3.359375-7.5 7.5 0 4.144531 3.355469 7.5 7.5 7.5zm0 0"/><path d="m87.582031 279.53125h.078125c4.144532 0 7.460938-3.355469 7.460938-7.5 0-4.140625-3.398438-7.5-7.539063-7.5-4.144531 0-7.5 3.359375-7.5 7.5 0 4.144531 3.355469 7.5 7.5 7.5zm0 0"/></svg>