<svg id="Capa_1" enable-background="new 0 0 512 512" height="512" viewBox="0 0 512 512" width="512" xmlns="http://www.w3.org/2000/svg"><g><circle cx="326" cy="247" r="15"/><circle cx="186" cy="247" r="15"/><path d="m256 272c-50.467 0-90 28.551-90 65s39.533 65 90 65 90-28.551 90-65-39.533-65-90-65zm0 100c-31.963 0-60-16.355-60-35s28.037-35 60-35 60 16.355 60 35-28.037 35-60 35z"/><path d="m456.607 106.395c-3.145-3.146-7.521-4.731-11.954-4.334-2.432.219-57.143 5.513-104.376 39.295-9.81-4.767-20.018-8.683-30.491-11.716 13.719-13.756 22.214-32.724 22.214-53.64 0-41.907-34.094-76-76-76s-76 34.093-76 76c0 20.916 8.495 39.884 22.214 53.64-10.473 3.033-20.681 6.949-30.491 11.716-47.233-33.782-101.944-39.076-104.376-39.295-4.425-.397-8.809 1.188-11.954 4.334s-4.732 7.525-4.332 11.956c.216 2.383 5.403 55.943 38.211 102.825-11.98 23.563-18.272 49.576-18.272 75.824 0 39.406 14.163 77.741 40 108.587v91.413c0 8.284 6.716 15 15 15h50c6.624 0 12.464-4.345 14.367-10.69l11.129-37.095c17.65 5.171 35.92 7.785 54.504 7.785s36.854-2.614 54.504-7.785l11.129 37.095c1.903 6.345 7.743 10.69 14.367 10.69h50c8.284 0 15-6.716 15-15v-91.413c25.837-30.847 40-69.182 40-108.587 0-26.248-6.292-52.261-18.271-75.825 32.808-46.882 37.995-100.442 38.211-102.825.4-4.431-1.187-8.81-4.333-11.955zm-200.607-76.395c25.364 0 46 20.636 46 46s-20.636 46-46 46-46-20.636-46-46 20.636-46 46-46zm137.178 180.681c-3.806 4.845-4.262 11.524-1.15 16.842 12.411 21.21 18.972 45.235 18.972 69.477 0 33.914-12.847 66.939-36.175 92.992-2.463 2.75-3.825 6.313-3.825 10.006v82.002h-23.84l-12.383-41.276c-1.2-4.002-4.016-7.322-7.768-9.16-3.755-1.84-8.104-2.028-11.999-.524-18.849 7.272-38.702 10.96-59.01 10.96s-40.161-3.688-59.011-10.96c-3.895-1.503-8.246-1.314-11.999.524-3.752 1.838-6.567 5.158-7.768 9.16l-12.382 41.276h-23.84v-82.002c0-3.692-1.362-7.255-3.825-10.006-23.328-26.053-36.175-59.078-36.175-92.992 0-24.242 6.561-48.267 18.973-69.478 3.111-5.317 2.655-11.997-1.15-16.842-20.187-25.697-29.89-55.909-34.358-75.252 19.584 4.5 50.308 14.395 76.369 35.299 4.743 3.803 11.312 4.369 16.635 1.431 23.89-13.187 51.047-20.158 78.531-20.158s54.641 6.971 78.532 20.159c5.321 2.936 11.891 2.373 16.635-1.431 25.94-20.807 56.769-30.733 76.402-35.266-4.437 19.294-14.112 49.403-34.391 75.219z"/></g></svg>