<svg height="682pt" viewBox="-21 -89 682.66553 682" width="682pt" xmlns="http://www.w3.org/2000/svg"><path d="m629.15625 271.234375c4.667969 0 8.8125-2.984375 10.285156-7.417969 1.476563-4.429687-.046875-9.308594-3.78125-12.105468l-42.664062-31.992188-203.574219-214.355469c-2.445313-2.5625-5.476563-4.488281-8.839844-5.609375-17.859375-6.792968-37.859375-4.867187-54.09375 5.199219-3.5625 1.851563-7.230469 3.5-10.980469 4.945313-11.949218-6.453126-25.316406-9.835938-38.898437-9.851563-12.742187-.0039062-25.199219 3.773437-35.792969 10.847656l-19.039062 12.671875c-.46875.394532-.898438.832032-1.292969 1.300782-5.71875-2.039063-11.738281-3.09375-17.808594-3.121094-14.050781-.019532-27.796875 4.128906-39.488281 11.929687l-17.351562 11.5625c-.859376.644531-1.621094 1.40625-2.257813 2.269531-17.015625-8.941406-37.863281-5.785156-51.472656 7.789063l-69.214844 69.203125c-14.710937 14.636719-22.953125 34.550781-22.890625 55.300781v82.292969c-.015625 8.722656 3.457031 17.09375 9.644531 23.242188 9.039063 9.25 22.128907 13.328124 34.820313 10.847656 15.554687-3.03125 28.761718-13.242188 35.613281-27.527344 5.375-14.46875 7.949219-29.832031 7.59375-45.261719.941406-21.039062 1.832031-40.910156 14.910156-50.285156 4.21875-3.179687 9.5-4.609375 14.742188-3.992187 11.695312 3.199218 22.59375 8.789062 32.011719 16.421874l2.171874 1.484376c11.796876 8.15625 22.90625 17.269531 33.203126 27.25 20.660156 19.972656 37.832031 43.257812 50.8125 68.894531 5.066406 9.445312 8.371093 19.738281 9.757812 30.371093 2.117188 17.523438-6.039062 34.699219-20.953125 44.136719-21.125 14.207031-48.121094 16.367188-71.238281 5.710938-8.332032-4.664063-16.085938-10.292969-23.105469-16.773438-8.378906-7.695312-17.667969-14.332031-27.667969-19.75-23.023437-11.546875-49.277344-14.953125-74.480468-9.660156-11.980469 1.1875-22.160157 9.269531-26.035157 20.664063-1.449219 9.984374 1.652344 20.09375 8.449219 27.542968 22.128906 31.570313 46.683594 61.367188 73.4375 89.121094 28.242188 28.351562 66.5625 44.351562 106.578125 44.5h134.074219c30.464844 0 60.800781-3.980469 90.238281-11.835938l101.535156-27.0625c10.503907-2.832031 21.5-3.355468 32.226563-1.542968l46.480468 7.746094c5.828126.832031 11.257813-3.140626 12.230469-8.945313.972657-5.8125-2.867187-11.335937-8.652343-12.449219l-46.488282-7.742187c-13.78125-2.320313-27.902344-1.644531-41.398437 1.976562l-101.527344 27.113281c-27.617187 7.34375-56.070313 11.054688-84.644531 11.046876h-134.074219c-34.277344-.15625-67.105469-13.882813-91.289063-38.175782-25.945312-26.976562-49.757812-55.921875-71.238281-86.570312-3.566406-4.816406-5.199219-7.972656-4.835937-9.40625.257812-1.082032 3.089844-3.25 9.554687-4.695313 20.390625-4.25 41.621094-1.476562 60.234375 7.875 8.414063 4.667969 16.234375 10.328125 23.300782 16.855469 8.304687 7.621094 17.496093 14.210938 27.378906 19.625 30.226562 14.039062 65.589844 11.289062 93.289062-7.246094 21.382813-13.996094 33.074219-38.828125 30.242188-64.226562-1.644532-13.28125-5.707032-26.148438-11.984375-37.964844-14.082031-27.792969-32.707031-53.039062-55.109375-74.6875-11.164063-10.796875-23.210938-20.644531-36.007813-29.449219l-2.097656-1.464843c-11.976563-9.65625-25.964844-16.507813-40.9375-20.046876-10.886719-1.570312-21.953125 1.234376-30.785156 7.785157-21.640625 15.46875-22.867188 42.785156-23.949219 66.875.339844 12.589843-1.558594 25.136719-5.621094 37.058593-3.824218 7.898438-11.113281 13.574219-19.710937 15.339844-5.722657 1.253906-11.691407-.554687-15.746094-4.785156-2.101563-2.109375-3.273437-4.964844-3.257813-7.9375v-82.292969c-.039062-14.988281 5.917969-29.367187 16.542969-39.941406l69.21875-69.203125c7.625-7.632812 19.609375-8.730469 28.496094-2.617188l150.78125 103.65625c3.1875 2.320313 7.382813 2.722657 10.957031 1.050782 3.574219-1.664063 5.957032-5.140625 6.230469-9.070313.277344-3.933593-1.609375-7.707031-4.914063-9.855469l-136.296874-93.71875 12.519531-8.355468c8.125-5.421875 17.675781-8.3125 27.445312-8.304688 6.917969.007813 13.648438 2.253906 19.191407 6.394532l118.742187 89.058593c3.101563 2.328125 7.207031 2.820313 10.773437 1.296875 3.5625-1.523437 6.042969-4.828125 6.507813-8.675781s-1.164063-7.652344-4.261719-9.976563l-112.8125-84.609374 12.003906-8.007813c7.042969-4.699219 15.324219-7.195313 23.789063-7.175781 14.820313-.011719 29.128906 5.429687 40.203125 15.28125l77.34375 68.75c2.894531 2.578125 6.941406 3.414062 10.617188 2.199218 3.683593-1.222656 6.433593-4.3125 7.21875-8.105468.78125-3.792969-.519532-7.71875-3.414063-10.296875l-73.054687-64.921875.648437-.320313c11.082031-7.40625 25.09375-8.90625 37.488281-4.007812l203.621094 214.347656c.832031.867187 1.738281 1.671875 2.699219 2.40625l42.664062 31.988281c1.875 1.410156 4.160157 2.167969 6.511719 2.167969zm0 0"/><path d="m600.09375 303.199219c5.691406-1.902344 8.757812-8.066407 6.847656-13.757813-1.90625-5.6875-8.070312-8.753906-13.757812-6.851562-.746094.238281-74.339844 25.972656-50.484375 121.386718 1.183593 4.847657 5.527343 8.265626 10.523437 8.277344.886719-.007812 1.777344-.113281 2.644532-.328125 5.808593-1.457031 9.332031-7.339843 7.886718-13.144531-18.875-75.480469 34.027344-94.773438 36.339844-95.582031zm0 0"/><path d="m458.769531 187.632812c-4.234375 4.234376-4.234375 11.105469 0 15.339844l54.238281 54.238282c4.257813 4.109374 11.023438 4.050781 15.210938-.132813 4.179688-4.183594 4.238281-10.953125.128906-15.207031l-54.238281-54.238282c-4.238281-4.230468-11.101563-4.230468-15.339844 0zm0 0"/><path d="m404.535156 133.394531c-4.238281 4.238281-4.238281 11.105469 0 15.339844l21.695313 21.691406c4.257812 4.113281 11.019531 4.054688 15.203125-.128906 4.1875-4.1875 4.246094-10.949219.132812-15.207031l-21.695312-21.695313c-4.238282-4.230469-11.101563-4.230469-15.335938 0zm0 0"/></svg>