<?xml version="1.0" encoding="iso-8859-1"?>
<!-- Generator: Adobe Illustrator 19.0.0, SVG Export Plug-In . SVG Version: 6.00 Build 0)  -->
<svg version="1.1" id="Capa_1" xmlns="http://www.w3.org/2000/svg" xmlns:xlink="http://www.w3.org/1999/xlink" x="0px" y="0px"
	 viewBox="0 0 511.999 511.999" style="enable-background:new 0 0 511.999 511.999;" xml:space="preserve">
<g>
	<g>
		<path d="M446.318,90.325c-8.293-8.292-19.322-12.861-31.053-12.861c-8.756,0-16.913,2.586-23.77,7.019v-1.832
			c0-11.73-4.568-22.759-12.861-31.053c-8.293-8.292-19.322-12.861-31.054-12.861c-8.756,0-16.913,2.586-23.77,7.019v-1.842
			c0-11.718-4.566-22.744-12.86-31.053C302.656,4.568,291.628,0,279.897,0c-24.214,0-43.914,19.7-43.914,43.914v1.807
			c-7.023-4.54-15.207-6.984-23.77-6.984c-24.219,0-43.924,19.7-43.924,43.914v218.873l-23.529-39.278
			c-0.13-0.218-0.269-0.43-0.415-0.637c-9.428-13.344-24.823-21.311-41.181-21.311c-10.434,0-20.467,3.191-29.017,9.228
			c-10.991,7.763-18.3,19.341-20.583,32.601c-2.27,13.186,0.7,26.463,8.365,37.417l76.132,118.472
			c0.08,0.124,0.162,0.246,0.247,0.366c32.56,46.096,85.687,73.617,142.114,73.617h4.754c95.946,0,174.004-78.062,174.004-174.014
			V121.378C459.179,109.647,454.611,98.618,446.318,90.325z M439.034,337.986c0,84.844-69.021,153.87-153.86,153.87h-4.754
			c-49.821,0-96.733-24.264-125.535-64.917l-76.124-118.46c-0.08-0.124-0.162-0.246-0.247-0.366
			c-9.617-13.614-6.362-32.514,7.252-42.132c5.132-3.624,11.147-5.539,17.396-5.539c9.708,0,18.849,4.668,24.525,12.505
			l41.742,69.68c0.543,1.039,1.264,1.966,2.121,2.751c0.043,0.039,0.087,0.079,0.13,0.118c0.179,0.159,0.364,0.311,0.554,0.457
			c0.092,0.072,0.185,0.14,0.279,0.207c0.148,0.106,0.299,0.206,0.453,0.304c0.141,0.09,0.283,0.176,0.427,0.258
			c0.115,0.065,0.232,0.128,0.349,0.188c0.193,0.1,0.388,0.194,0.586,0.281c0.075,0.032,0.149,0.063,0.225,0.095
			c0.256,0.105,0.514,0.199,0.777,0.283c0.021,0.007,0.043,0.013,0.064,0.02c2.614,0.814,5.544,0.577,8.09-0.916
			c3.398-1.993,5.186-5.669,4.946-9.35V82.651c0-13.107,10.667-23.77,23.78-23.77c6.351,0,12.32,2.472,16.808,6.961
			c4.489,4.489,6.962,10.459,6.962,16.808v148.331c0,5.562,4.509,10.072,10.072,10.072c5.563,0,10.072-4.51,10.072-10.072V43.914
			c0-13.107,10.663-23.77,23.77-23.77c6.35,0,12.32,2.472,16.803,6.955c4.492,4.5,6.967,10.471,6.967,16.814V82.65v148.331
			c0,5.562,4.509,10.072,10.072,10.072c5.563,0,10.072-4.51,10.072-10.072V82.651c0.001-13.107,10.664-23.77,23.771-23.77
			c6.351,0,12.32,2.472,16.809,6.96c4.489,4.49,6.961,10.46,6.961,16.809v38.727V230.98c0,5.562,4.509,10.072,10.072,10.072
			c5.563,0,10.072-4.51,10.072-10.072V121.378c0-13.107,10.663-23.77,23.77-23.77c6.35,0,12.32,2.472,16.809,6.961
			c4.489,4.489,6.961,10.459,6.961,16.808V337.986z"/>
	</g>
</g>
<g>
	<g>
		<path d="M372.688,402.907c-4.14-3.714-10.509-3.369-14.223,0.771c-18.694,20.835-45.408,32.783-73.291,32.783
			c-5.563-0.001-10.072,4.508-10.072,10.071c0,5.562,4.509,10.072,10.072,10.072c33.597,0,65.775-14.388,88.284-39.473
			C377.173,412.99,376.828,406.622,372.688,402.907z"/>
	</g>
</g>
<g>
	<g>
		<path d="M383.249,373.171c-12.962,0-12.984,20.144,0,20.144C396.211,393.315,396.232,373.171,383.249,373.171z"/>
	</g>
</g>
<g>
</g>
<g>
</g>
<g>
</g>
<g>
</g>
<g>
</g>
<g>
</g>
<g>
</g>
<g>
</g>
<g>
</g>
<g>
</g>
<g>
</g>
<g>
</g>
<g>
</g>
<g>
</g>
<g>
</g>
</svg>
