<svg id="Layer_1" enable-background="new 0 0 510 510" height="512" viewBox="0 0 510 510" width="512" xmlns="http://www.w3.org/2000/svg"><g><path d="m255 0c-140.931 0-255 114.05-255 255 0 140.931 114.05 255 255 255 140.931 0 255-114.05 255-255 0-140.931-114.05-255-255-255zm0 480c-124.065 0-225-100.935-225-225s100.935-225 225-225 225 100.935 225 225-100.935 225-225 225z"/><path d="m345 90h-30v135h-65.399l-99.601-135.82v135.82h-45v30h45v30h-45v30h45v90h30v-90h98.399l66.601 90.82v-90.82h45v-30h-45v-30h45v-30h-45zm-165 90.82 32.399 44.18h-32.399zm0 104.18v-30h54.399l22 30zm135 0h-21.399l-22-30h43.399z"/></g></svg>