<svg id="Capa_1" enable-background="new 0 0 512 512" height="512" viewBox="0 0 512 512" width="512" xmlns="http://www.w3.org/2000/svg"><g><g id="Page-1_1_"><g id="_x30_02---Sell-Button"><path id="Shape_8_" d="m477.867 0h-443.734c-18.851 0-34.133 15.282-34.133 34.133v170.667c0 18.851 15.282 34.133 34.133 34.133h187.733v131.26l-32.964-16.486c-11.017-5.808-24.272-5.418-34.928 1.028s-17.155 18.005-17.125 30.46c-.043 11.205 5.252 21.76 14.259 28.425 18.878 13.898 36.854 28.982 53.82 45.158 8.826 9.236 16.286 19.687 22.153 31.036 1.24 2.26 2.688 4.4 4.326 6.391.184.278.383.546.597.802 8.119 9.527 20.012 15.009 32.529 14.993h93.867c28.265-.028 51.172-22.935 51.2-51.2v-106.667c0-16.495-13.372-29.867-29.867-29.867-4.483.026-8.902 1.073-12.919 3.063-.644-15.977-13.757-28.613-29.747-28.663-4.483.026-8.902 1.073-12.919 3.063-.312-10.035-5.692-19.227-14.288-24.413s-19.237-5.659-28.259-1.255v-37.129h196.267c18.851 0 34.133-15.282 34.133-34.133v-170.666c-.001-18.851-15.283-34.133-34.134-34.133zm-183.467 290.133c7.069 0 12.8 5.731 12.8 12.8v72.533c0 4.713 3.82 8.533 8.533 8.533s8.533-3.821 8.533-8.533v-46.933c0-7.069 5.731-12.8 12.8-12.8s12.8 5.731 12.8 12.8v46.933c0 4.713 3.821 8.533 8.533 8.533 4.713 0 8.533-3.821 8.533-8.533v-21.333c0-7.069 5.731-12.8 12.8-12.8s12.8 5.731 12.8 12.8v106.667c0 18.851-15.282 34.133-34.133 34.133h-93.867c-7.246.004-14.155-3.062-19.012-8.439-.171-.247-.358-.486-.555-.725-1.123-1.297-2.104-2.71-2.927-4.215-6.647-12.788-15.102-24.551-25.105-34.927-17.516-16.724-36.079-32.314-55.578-46.677-4.683-3.454-7.438-8.935-7.415-14.754.026-3.824 1.2-7.552 3.371-10.701 5.492-7.559 15.715-9.915 23.962-5.521l45.312 22.665c2.646 1.322 5.788 1.18 8.303-.376 2.516-1.556 4.046-4.303 4.045-7.261v-149.335c0-7.069 5.731-12.8 12.8-12.8s12.8 5.731 12.8 12.8v140.8c0 4.713 3.821 8.533 8.533 8.533 4.713 0 8.533-3.821 8.533-8.533v-72.533c.001-7.07 5.732-12.801 12.801-12.801zm200.533-85.333c0 9.426-7.641 17.067-17.067 17.067h-199.261c-4.843-10.48-15.335-17.191-26.88-17.191s-22.037 6.71-26.88 17.191h-190.712c-9.426 0-17.067-7.641-17.067-17.067v-170.667c0-9.426 7.641-17.067 17.067-17.067h443.733c9.426 0 17.067 7.641 17.067 17.067z"/><path id="Shape_7_" d="m93.867 59.733c18.825 0 34.133 11.486 34.133 25.6 0 4.713 3.82 8.533 8.533 8.533s8.533-3.821 8.533-8.533c0-23.526-22.963-42.667-51.2-42.667s-51.2 19.14-51.2 42.667 22.964 42.667 51.201 42.667c18.824 0 34.133 11.486 34.133 25.6s-15.309 25.6-34.133 25.6-34.133-11.486-34.133-25.6c0-4.713-3.821-8.533-8.533-8.533s-8.533 3.82-8.533 8.533c0 23.526 22.963 42.667 51.2 42.667s51.2-19.14 51.2-42.667-22.963-42.667-51.2-42.667c-18.825 0-34.133-11.486-34.133-25.6s15.307-25.6 34.132-25.6z"/><path id="Shape_6_" d="m247.467 59.733c4.713 0 8.533-3.821 8.533-8.533s-3.821-8.533-8.533-8.533h-68.267c-4.713 0-8.533 3.821-8.533 8.533v136.533c0 4.713 3.821 8.533 8.533 8.533h68.267c4.713 0 8.533-3.821 8.533-8.533 0-4.713-3.821-8.533-8.533-8.533h-59.733v-51.2h51.2c4.713 0 8.533-3.821 8.533-8.533 0-4.713-3.82-8.533-8.533-8.533h-51.2v-51.2h59.733z"/><path id="Shape_5_" d="m358.4 179.2h-59.733v-128c0-4.713-3.82-8.533-8.533-8.533s-8.534 3.82-8.534 8.533v136.533c0 4.713 3.82 8.533 8.533 8.533h68.267c4.713 0 8.533-3.821 8.533-8.533s-3.82-8.533-8.533-8.533z"/><path id="Shape_4_" d="m469.333 179.2h-59.733v-128c0-4.713-3.82-8.533-8.533-8.533s-8.533 3.821-8.533 8.533v136.533c0 4.713 3.82 8.533 8.533 8.533h68.267c4.713 0 8.533-3.821 8.533-8.533s-3.821-8.533-8.534-8.533z"/></g></g></g></svg>